<mxfile host="app.diagrams.net" modified="2024-04-01T15:32:49.168Z" agent="Mozilla/5.0 (Windows NT 10.0; Win64; x64; rv:124.0) Gecko/20100101 Firefox/124.0" version="24.2.1" etag="Whv7z8T4TQUdy3kyoBfX" type="github">
  <diagram name="Page-1" id="mB4dwECIEXn7okrPlieO">
    <mxGraphModel>
      <root>
        <mxCell id="0" />
        <mxCell id="1" parent="0" />
      </root>
    </mxGraphModel>
  </diagram>
</mxfile>
